# xmcd
#
# Track frame offsets:
# 150
# 20926
# 38869
# 57815
# 74729
# 91201
# 114056
# 130250
# 144539
# 163131
# 181878
# 198531
# 214130
# 237073
#
# Disc length: 3375 seconds
#
# Revision: 0
# Processed by: cddbd v1.5.1PL0 Copyright (c) Steve Scherf et al.
# Submitted via: Audion 3.0.2 (http://www.panic.com/audion/)
#
DISCID=cb0d2d0e
DTITLE=The Beautiful South - Quench
DYEAR=1900
DGENRE=
TTITLE0=How longs a tear take to dry?
TTITLE1=The lure of the sea
TTITLE2=Big coin
TTITLE3=Dumb
TTITLE4=Perfect 10
TTITLE5=The Slide
TTITLE6=Look what I found in my beer
TTITLE7=The Table
TTITLE8=Window shopping for blinds
TTITLE9=Pockets
TTITLE10=I may be ugly
TTITLE11=Losing Things
TTITLE12=Your father and I
TTITLE13=If
EXTD=
EXTT0=
EXTT1=
EXTT2=
EXTT3=
EXTT4=
EXTT5=
EXTT6=
EXTT7=
EXTT8=
EXTT9=
EXTT10=
EXTT11=
EXTT12=
EXTT13=
PLAYORDER=
